solid OpenSCAD_Model
  facet normal 1 -0 0
    outer loop
      vertex 0 0 4
      vertex 0 102 1.5
      vertex 0 102 4
    endloop
  endfacet
  facet normal 1 0 0
    outer loop
      vertex 0 0 4
      vertex 0 0 1.5
      vertex 0 102 1.5
    endloop
  endfacet
  facet normal 0 1 -0
    outer loop
      vertex 127.5 0 1.5
      vertex 0 0 4
      vertex 127.5 0 4
    endloop
  endfacet
  facet normal 0 1 0
    outer loop
      vertex 127.5 0 1.5
      vertex 0 0 1.5
      vertex 0 0 4
    endloop
  endfacet
  facet normal -0 0 1
    outer loop
      vertex 0 102 1.5
      vertex 127.5 0 1.5
      vertex 127.5 102 1.5
    endloop
  endfacet
  facet normal 0 0 1
    outer loop
      vertex 0 102 1.5
      vertex 0 0 1.5
      vertex 127.5 0 1.5
    endloop
  endfacet
  facet normal 0 -1 0
    outer loop
      vertex 0 102 4
      vertex 127.5 102 1.5
      vertex 127.5 102 4
    endloop
  endfacet
  facet normal 0 -1 0
    outer loop
      vertex 0 102 4
      vertex 0 102 1.5
      vertex 127.5 102 1.5
    endloop
  endfacet
  facet normal -1 0 0
    outer loop
      vertex 127.5 102 1.5
      vertex 127.5 0 4
      vertex 127.5 102 4
    endloop
  endfacet
  facet normal -1 0 0
    outer loop
      vertex 127.5 102 1.5
      vertex 127.5 0 1.5
      vertex 127.5 0 4
    endloop
  endfacet
  facet normal -1 0 0
    outer loop
      vertex -2 -2 4
      vertex -2 104 0
      vertex -2 -2 0
    endloop
  endfacet
  facet normal -1 0 0
    outer loop
      vertex -2 -2 4
      vertex -2 104 4
      vertex -2 104 0
    endloop
  endfacet
  facet normal 0 -1 0
    outer loop
      vertex 129.5 -2 0
      vertex -2 -2 4
      vertex -2 -2 0
    endloop
  endfacet
  facet normal 0 -1 0
    outer loop
      vertex 129.5 -2 0
      vertex 129.5 -2 4
      vertex -2 -2 4
    endloop
  endfacet
  facet normal 0 0 -1
    outer loop
      vertex -2 104 0
      vertex 129.5 -2 0
      vertex -2 -2 0
    endloop
  endfacet
  facet normal 0 0 -1
    outer loop
      vertex -2 104 0
      vertex 129.5 104 0
      vertex 129.5 -2 0
    endloop
  endfacet
  facet normal 0 1 0
    outer loop
      vertex -2 104 4
      vertex 129.5 104 0
      vertex -2 104 0
    endloop
  endfacet
  facet normal -0 1 0
    outer loop
      vertex -2 104 4
      vertex 129.5 104 4
      vertex 129.5 104 0
    endloop
  endfacet
  facet normal 0 0 1
    outer loop
      vertex 129.5 104 4
      vertex -2 104 4
      vertex 127.5 102 4
    endloop
  endfacet
  facet normal 0 0 1
    outer loop
      vertex 129.5 -2 4
      vertex 0 0 4
      vertex -2 -2 4
    endloop
  endfacet
  facet normal 0 0 1
    outer loop
      vertex 0 102 4
      vertex -2 104 4
      vertex -2 -2 4
    endloop
  endfacet
  facet normal 0 0 1
    outer loop
      vertex -2 104 4
      vertex 0 102 4
      vertex 127.5 102 4
    endloop
  endfacet
  facet normal 0 0 1
    outer loop
      vertex 0 102 4
      vertex -2 -2 4
      vertex 0 0 4
    endloop
  endfacet
  facet normal 0 0 1
    outer loop
      vertex 129.5 104 4
      vertex 127.5 102 4
      vertex 129.5 -2 4
    endloop
  endfacet
  facet normal 0 0 1
    outer loop
      vertex 127.5 102 4
      vertex 127.5 0 4
      vertex 129.5 -2 4
    endloop
  endfacet
  facet normal 0 0 1
    outer loop
      vertex 127.5 0 4
      vertex 0 0 4
      vertex 129.5 -2 4
    endloop
  endfacet
  facet normal 1 0 0
    outer loop
      vertex 129.5 104 0
      vertex 129.5 -2 4
      vertex 129.5 -2 0
    endloop
  endfacet
  facet normal 1 0 -0
    outer loop
      vertex 129.5 104 0
      vertex 129.5 104 4
      vertex 129.5 -2 4
    endloop
  endfacet
endsolid OpenSCAD_Model
